<!DOCTYPE svg PUBLIC "-//W3C//DTD SVG 1.1//EN" "http://www.w3.org/Graphics/SVG/1.1/DTD/svg11.dtd">

<!-- Uploaded to: SVG Repo, www.svgrepo.com, Transformed by: SVG Repo Mixer Tools -->
<svg fill="#000000" width="40px" height="40px" viewBox="0 0 24 24" xmlns="http://www.w3.org/2000/svg" stroke="#000000" stroke-width="0.576">

<g id="SVGRepo_bgCarrier" stroke-width="0"/>

<g id="SVGRepo_tracerCarrier" stroke-linecap="round" stroke-linejoin="round"/>

<g id="SVGRepo_iconCarrier"> <g id="Grid_4-2"> <g> <g> <path d="M8.5,13.933H5.563a2.5,2.5,0,0,1-2.5-2.5V5.563a2.5,2.5,0,0,1,2.5-2.5H8.5a2.5,2.5,0,0,1,2.5,2.5v5.87A2.5,2.5,0,0,1,8.5,13.933ZM5.563,4.063a1.5,1.5,0,0,0-1.5,1.5v5.87a1.5,1.5,0,0,0,1.5,1.5H8.5a1.5,1.5,0,0,0,1.5-1.5V5.563a1.5,1.5,0,0,0-1.5-1.5Z"/> <path d="M8.5,20.935H5.564a2.5,2.5,0,0,1,0-5H8.5a2.5,2.5,0,1,1,0,5Zm-2.934-4a1.5,1.5,0,0,0,0,3H8.5a1.5,1.5,0,1,0,0-3Z"/> </g> <g> <path d="M18.436,20.935H15.5a2.5,2.5,0,0,1-2.5-2.5v-5.87a2.5,2.5,0,0,1,2.5-2.5h2.934a2.5,2.5,0,0,1,2.5,2.5v5.87A2.5,2.5,0,0,1,18.436,20.935ZM15.5,11.065a1.5,1.5,0,0,0-1.5,1.5v5.87a1.5,1.5,0,0,0,1.5,1.5h2.934a1.5,1.5,0,0,0,1.5-1.5v-5.87a1.5,1.5,0,0,0-1.5-1.5Z"/> <path d="M18.436,8.063H15.5a2.5,2.5,0,0,1,0-5h2.934a2.5,2.5,0,0,1,0,5Zm-2.934-4a1.5,1.5,0,0,0,0,3h2.934a1.5,1.5,0,0,0,0-3Z"/> </g> </g> </g> </g>

</svg>