<!DOCTYPE svg PUBLIC "-//W3C//DTD SVG 1.1//EN" "http://www.w3.org/Graphics/SVG/1.1/DTD/svg11.dtd">

<!-- Uploaded to: SVG Repo, www.svgrepo.com, Transformed by: SVG Repo Mixer Tools -->
<svg fill="#000000" width="40px" height="40px" viewBox="0 0 256 256" id="Flat" xmlns="http://www.w3.org/2000/svg" stroke="#000000" stroke-width="2.304">

<g id="SVGRepo_bgCarrier" stroke-width="0"/>

<g id="SVGRepo_tracerCarrier" stroke-linecap="round" stroke-linejoin="round"/>

<g id="SVGRepo_iconCarrier"> <path d="M164,145.10254V48a36,36,0,0,0-72,0v97.10254a56,56,0,1,0,72,0ZM128,236a48.00172,48.00172,0,0,1-29.78516-85.64355A4.00046,4.00046,0,0,0,100,147.02539V48a28,28,0,0,1,56,0v99.02539a3.9918,3.9918,0,0,0,1.72559,3.28418A48.0016,48.0016,0,0,1,128,236Zm4-71.66016V88a4,4,0,0,0-8,0v76.33984a24,24,0,1,0,8,0ZM128,204a16,16,0,1,1,16-16A16.01833,16.01833,0,0,1,128,204Z"/> </g>

</svg>